<svg xmlns="http://www.w3.org/2000/svg" width="2500" height="2148" viewBox="0 0 256 220" preserveAspectRatio="xMinYMin meet" xmlns:v="https://vecta.io/nano"><path d="M245.97 168.943c-13.662 7.121-84.434 36.22-99.501 44.075s-23.437 7.78-35.34 2.09-87.216-36.112-100.783-42.597C3.566 169.271 0 166.535 0 163.951v-25.876s98.05-21.345 113.879-27.024 21.32-5.884 34.79-.95S242.687 129.569 256 134.445l-.006 25.51c.002 2.558-3.07 5.364-10.024 8.988" fill="#912626"/><path d="M245.965 143.22c-13.661 7.118-84.431 36.218-99.498 44.072s-23.436 7.78-35.338 2.09-87.214-36.113-100.78-42.594-13.85-10.948-.524-16.166L113.88 90.338c15.828-5.677 21.319-5.884 34.789-.948s83.819 32.935 97.13 37.81c13.316 4.881 13.827 8.9.166 16.02" fill="#c6302b"/><path d="M245.97 127.074c-13.662 7.122-84.434 36.22-99.501 44.078s-23.437 7.777-35.34 2.087-87.216-36.112-100.783-42.597C3.566 127.402 0 124.67 0 122.085V96.206s98.05-21.344 113.879-27.023 21.32-5.885 34.79-.95S242.688 87.697 256 92.574l-.006 25.513c.002 2.557-3.07 5.363-10.024 8.987" fill="#912626"/><path d="M245.965 101.351c-13.661 7.12-84.431 36.218-99.498 44.075s-23.436 7.777-35.338 2.087-87.214-36.112-100.78-42.594-13.85-10.947-.524-16.167L113.88 48.47c15.828-5.678 21.319-5.884 34.789-.949s83.819 32.933 97.13 37.81 13.827 8.9.166 16.02" fill="#c6302b"/><path d="M245.97 83.653c-13.662 7.12-84.434 36.22-99.501 44.078s-23.437 7.777-35.34 2.087S23.913 93.705 10.346 87.223C3.566 83.98 0 81.247 0 78.665v-25.88s98.05-21.343 113.879-27.021 21.32-5.884 34.79-.95S242.688 44.278 256 49.155l-.006 25.512c.002 2.555-3.07 5.361-10.024 8.986" fill="#912626"/><path d="M245.965 57.93c-13.661 7.12-84.431 36.22-99.498 44.074s-23.436 7.777-35.338 2.09S23.915 67.98 10.35 61.497-3.5 50.55 9.825 45.331L113.88 5.05c15.828-5.679 21.319-5.883 34.789-.948s83.819 32.934 97.13 37.811 13.827 8.897.166 16.017" fill="#c6302b"/><path d="M159.283 32.757l-22.01 2.285-4.927 11.856-7.958-13.23-25.415-2.284 18.964-6.839-5.69-10.498 17.755 6.944 16.738-5.48-4.524 10.855 17.067 6.391m-28.251 57.518L89.955 73.238l58.86-9.035-17.783 26.072m-56.95-50.928c17.375 0 31.46 5.46 31.46 12.194s-14.085 12.195-31.46 12.195-31.46-5.46-31.46-12.195 14.085-12.194 31.46-12.194" fill="#fff"/><path d="M185.295 35.998l34.836 13.766-34.806 13.753-.03-27.52" fill="#621b1c"/><path d="M146.755 51.243l38.54-15.245.03 27.519-3.779 1.478-34.791-13.752" fill="#9a2928"/></svg>