<svg xmlns="http://www.w3.org/2000/svg" xmlns:xlink="http://www.w3.org/1999/xlink" width="804.473" height="781.847" xmlns:v="https://vecta.io/nano"><style><![CDATA[.B{fill:#3f3d56}.C{fill:#e6e6e6}.D{fill:#2f2e41}.E{fill:#ff6584}]]></style><path d="M756.855 215.792c-7.531-13.587-15.887-26.7-25.021-39.265q-9.6-13.224-20.288-25.565h-.018a383.42 383.42 0 0 0-41.94-41.512q-4.613-3.918-9.351-7.675c-28.51-22.681-60.126-41.155-93.882-54.857l.299 49.327 3.23 562.302H289.922L274.177 97.307l1.173-48.539C138.093 106.495 41.718 242.223 41.718 400.469c-.026 32.663 4.142 65.194 12.399 96.795a375.14 375.14 0 0 0 12.649 39.408q2.674 7.02 5.642 13.914l2.933 6.668a302.1 302.1 0 0 0 4.02 8.611q1.604 3.356 3.298 6.668 2.179 4.346 4.502 8.62l3.672 6.667c20.133 35.612 45.843 67.768 76.151 95.244q12.956 11.753 26.964 22.285c135.74 101.998 322.555 101.998 458.295 0q7.621-5.723 14.931-11.829 4.854-4.038 9.547-8.227l2.478-2.228a382.98 382.98 0 0 0 71.364-87.008 374.26 374.26 0 0 0 19.325-36.689q2.286-4.974 4.43-10.037a376.13 376.13 0 0 0 16.562-47.591q1.03-3.757 1.988-7.541v-.009l.33-1.319 1.899-8.005v-.009q2.942-12.93 4.965-26.171l.499-3.396.169-1.23v-.009q1.444-10.229 2.344-20.609 1.391-16.299 1.399-32.972c.101-64.608-16.289-128.173-47.618-184.677z" fill="#f2f2f2"/><path d="M719.402 630.685c22.573-30.501 31.255-73.463 13.696-107.101a174.83 174.83 0 0 1-82.773 86.927c-14.289 7.006-30.912 13.31-37.526 27.784-4.116 9.006-3.332 19.641-.024 28.974s8.936 17.638 14.503 25.827l.293 2.455c35.052-14.533 69.257-34.365 91.83-64.865z" class="C"/><g fill="#fff"><path d="M732.348 523.854a149.43 149.43 0 0 1-31.086 86.525 64.35 64.35 0 0 1-14.424 14.088 36.91 36.91 0 0 1-18.452 6.069c-6.131.439-12.453.179-18.371 2.101a22.6 22.6 0 0 0-13.521 12.6c-3.276 7.232-3.759 15.209-3.959 23.027-.223 8.68-.317 17.699-4.411 25.59-.496.956 1.016 1.67 1.512.715 7.123-13.728 2.498-29.782 6.743-44.214 1.981-6.734 6.003-12.912 12.726-15.61 5.879-2.36 12.399-2.097 18.61-2.488 6.426-.237 12.696-2.043 18.263-5.261a59.49 59.49 0 0 0 14.912-13.482c9.578-11.799 17.242-25.03 22.711-39.209a152.08 152.08 0 0 0 10.413-50.596c.034-1.073-1.632-.921-1.666.145z"/><path d="M707.915 602.739a22.42 22.42 0 0 0 28.554-5.242c.678-.836-.589-1.928-1.268-1.092-6.459 7.935-17.736 9.982-26.571 4.822-.93-.542-1.64.973-.715 1.512zm-36.391 27.983a43.21 43.21 0 0 1 3.185-31.33c.493-.958-1.02-1.672-1.512-.715a44.95 44.95 0 0 0-3.248 32.609c.292 1.038 1.865.469 1.575-.563zm56.192-72.488a12.69 12.69 0 0 1-8.289-8.735c-.279-1.041-1.852-.471-1.575.563a14.22 14.22 0 0 0 9.149 9.683c.418.182.905.007 1.113-.398a.84.84 0 0 0-.398-1.114z"/></g><path d="M607.441 496.815l.458 1.976c2.048 8.817 3.377 17.786 3.973 26.818l.142 2.103a176.19 176.19 0 0 1-8.405 64.321 171.1 171.1 0 0 1-9.933 24.025c-5.408 10.696-12.123 21.862-13.637 33.381a29.35 29.35 0 0 0-.29 3.621l44.805 42.658c.15.046.292.102.443.149l1.711 1.785.69-1.175c.134-.223.259-.455.393-.678.086-.152.172-.304.259-.436a2.34 2.34 0 0 0 .077-.141c.087-.132.153-.264.23-.385q1.939-3.387 3.836-6.813c.01-.01.01-.01.01-.03 9.595-17.428 17.82-35.81 22.993-54.855.155-.573.321-1.156.456-1.748a163.27 163.27 0 0 0 4.717-26.223 144.34 144.34 0 0 0 .62-14.591c-.127-12.586-2.232-25.074-6.239-37.006-7.992-23.785-23.502-44.749-45.61-55.917l-1.698-.837z" class="C"/><g fill="#fff"><path d="M607 497.479a149.43 149.43 0 0 1 27.274 87.801 64.35 64.35 0 0 1-3.034 19.933 36.91 36.91 0 0 1-11.079 15.955c-4.631 4.042-9.836 7.64-13.403 12.738a22.6 22.6 0 0 0-3.209 18.201c1.738 7.746 6.156 14.406 10.702 20.769 5.048 7.065 10.403 14.323 11.885 23.088.18 1.062 1.817.721 1.638-.339-2.578-15.25-15.936-25.283-21.236-39.362-2.473-6.569-2.981-13.924.762-20.126 3.273-5.424 8.637-9.139 13.361-13.191 4.988-4.058 8.907-9.275 11.415-15.197a59.49 59.49 0 0 0 3.79-19.742c.544-15.187-1.303-30.366-5.473-44.98a152.08 152.08 0 0 0-22.148-46.667c-.619-.877-1.858.248-1.243 1.119z"/><path d="M634.986 575.175c10.9-1.352 19.215-10.401 19.643-21.377.038-1.075-1.631-1.185-1.669-.108a20.76 20.76 0 0 1-18.313 19.847c-1.069.127-.723 1.764.339 1.638zm-12.208 44.253a43.21 43.21 0 0 1-16.32-26.933c-.183-1.061-1.821-.721-1.638.339a44.95 44.95 0 0 0 17.039 27.992c.858.653 1.772-.749.918-1.398zm1.223-91.71a12.69 12.69 0 0 1-11.877-1.984c-.85-.663-1.762.739-.918 1.398a14.22 14.22 0 0 0 13.135 2.224c.443-.107.727-.539.649-.988a.84.84 0 0 0-.988-.649z"/></g><path d="M17.804 459.858c-20.02-32.234-25.181-75.76-4.946-107.86a174.83 174.83 0 0 0 75.435 93.366c13.673 8.144 29.728 15.778 35.144 30.742 3.37 9.311 1.725 19.847-2.331 28.88s-10.34 16.853-16.554 24.562l-.492 2.423c-33.755-17.334-66.235-39.879-86.255-72.114z" class="C"/><g fill="#fff"><path d="M13.582 352.328a149.43 149.43 0 0 0 23.951 88.765 64.35 64.35 0 0 0 13.231 15.214 36.91 36.91 0 0 0 17.898 7.548c6.075.936 12.397 1.19 18.139 3.587a22.6 22.6 0 0 1 12.452 13.657c2.678 7.474 2.51 15.464 2.075 23.272-.483 8.669-1.123 17.667 2.317 25.864.417.993-1.149 1.582-1.565.59-5.984-14.262-.069-29.886-3.128-44.615-1.427-6.873-4.934-13.357-11.415-16.593-5.668-2.83-12.187-3.097-18.346-3.992-6.386-.758-12.488-3.068-17.775-6.728a59.49 59.49 0 0 1-13.767-14.649c-8.588-12.538-15.151-26.348-19.449-40.925a152.08 152.08 0 0 1-6.267-51.275c.053-1.072 1.702-.785 1.649.28z"/><path d="M31.524 432.938c-9.931 4.691-21.799 1.497-28.033-7.545-.608-.888.744-1.874 1.352-.985 5.792 8.434 16.866 11.39 26.091 6.965.971-.464 1.555 1.103.59 1.565zm33.996 30.848a43.21 43.21 0 0 0-.628-31.485c-.413-.995 1.152-1.584 1.565-.59 4.312 10.459 4.522 22.158.587 32.765-.376 1.011-1.897.316-1.524-.689zm-50.115-76.815a12.69 12.69 0 0 0 8.972-8.032c.363-1.015 1.884-.319 1.524.689a14.22 14.22 0 0 1-9.905 8.908c-.431.147-.903-.066-1.077-.487a.84.84 0 0 1 .487-1.077z"/></g><path d="M140.274 335.529l-.617 1.932a167.13 167.13 0 0 0-6.139 26.406l-.312 2.085a176.19 176.19 0 0 0 3.15 64.791 171.1 171.1 0 0 0 7.948 24.753c4.521 11.1 10.306 22.775 10.879 34.378a29.35 29.35 0 0 1-.005 3.633l-48.124 38.876c-.154.033-.299.078-.453.112l-1.85 1.64-.592-1.227c-.116-.233-.221-.475-.336-.708-.074-.158-.147-.317-.223-.455-.025-.053-.049-.106-.065-.147-.076-.139-.131-.275-.198-.403q-1.657-3.533-3.27-7.102c-.009-.011-.009-.011-.007-.031-8.147-18.15-14.851-37.139-18.459-56.543l-.313-1.78a163.27 163.27 0 0 1-2.571-26.52 144.34 144.34 0 0 1 .568-14.593c1.149-12.534 4.263-24.81 9.226-36.376 9.898-23.057 27.061-42.691 50.004-52.025l1.76-.696z" class="C"/><g fill="#fff"><path d="M140.659 336.227a149.43 149.43 0 0 0-34.319 85.294 64.35 64.35 0 0 0 1.405 20.113 36.91 36.91 0 0 0 9.746 16.803c4.287 4.405 9.182 8.414 12.324 13.785a22.6 22.6 0 0 1 1.72 18.402c-2.362 7.58-7.306 13.858-12.355 19.831-5.606 6.631-11.533 13.43-13.722 22.045-.265 1.044-1.87.571-1.605-.471 3.809-14.99 17.938-23.904 24.364-37.506 2.998-6.347 4.103-13.635.876-20.121-2.822-5.672-7.866-9.811-12.245-14.233-4.642-4.45-8.124-9.969-10.142-16.074a59.49 59.49 0 0 1-2.173-19.985c.692-15.181 3.766-30.16 9.111-44.386a152.08 152.08 0 0 1 25.867-44.713c.688-.824 1.831.398 1.148 1.217z"/><path d="M106.452 411.392c-10.754-2.233-18.307-11.929-17.841-22.902a.84.84 0 0 1 .85-.794c.451.007.815.371.823.821a20.76 20.76 0 0 0 16.639 21.27c1.055.214.578 1.817-.471 1.605zm8.571 45.098a43.21 43.21 0 0 0 18.455-25.518c.269-1.043 1.873-.571 1.605.471-2.854 10.947-9.731 20.415-19.258 26.514-.908.581-1.705-.89-.802-1.468zm6.234-91.505a12.69 12.69 0 0 0 11.999-1.012c.901-.592 1.696.88.802 1.468a14.22 14.22 0 0 1-13.272 1.149c-.433-.142-.681-.597-.567-1.038a.84.84 0 0 1 1.038-.567z"/></g><circle cx="389.439" cy="77.833" r="52.985" class="E"/><path d="M551.669 75.068a194.67 194.67 0 0 0-15.1-14.333c-10.322-8.753-21.75-16.196-34.488-20.885a79.53 79.53 0 0 0-14.797-3.895l-1.81-.276a.67.67 0 0 0-.134 0 1.61 1.61 0 0 0-.285-.053 65.35 65.35 0 0 0-3.726-.374 64.56 64.56 0 0 0-20.003 1.801 66.52 66.52 0 0 0-11.053 3.851 98.95 98.95 0 0 0-10.367 5.874 62.19 62.19 0 0 1-5.527 2.986 68.93 68.93 0 0 1-17.382 5.562 78.04 78.04 0 0 1-12.301 1.212c-3.583.071-6.962.196-10.358 1.489a24.82 24.82 0 0 0-15.127 16.384c-.173.678.116 1.39.713 1.756.918.66 1.809 1.408 2.781 1.997a8.74 8.74 0 0 0 2.71.74q2.3.481 4.608.936 8.49 1.685 17.052 2.986 17.221 2.607 34.639 3.672a1.73 1.73 0 0 0 .214.018c13.118.792 26.268.92 39.399.383l5.954-.294q12.421-.695 24.78-2.193 11.432-1.391 22.775-3.45 8.103-1.471 16.143-3.28a1.58 1.58 0 0 0 .686-2.612zm-110.13 70.651a173.07 173.07 0 0 0-25.235-22.213c-3.022-2.121-6.133-4.118-9.333-5.946a98.84 98.84 0 0 0-12.194-5.963 84.01 84.01 0 0 0-2.826-1.096 79.02 79.02 0 0 0-16.606-4.172c-.045-.009-.089 0-.134-.009l-.276-.053c-2.749-.356-5.518-.526-8.29-.508a60.6 60.6 0 0 0-5.963.303c-3.197.315-6.367.863-9.484 1.64a58.53 58.53 0 0 0-4.582 1.337 65.44 65.44 0 0 0-6.463 2.514c-.036.018-.062.027-.098.045a96.29 96.29 0 0 0-10.269 5.83c-.071.045-.152.089-.223.134a64.73 64.73 0 0 1-11.838 5.544 72.05 72.05 0 0 1-10.857 2.87 76.88 76.88 0 0 1-12.301 1.203c-3.583.071-6.962.196-10.349 1.498-7.352 2.761-12.965 8.836-15.136 16.384a1.61 1.61 0 0 0 .713 1.756c.918.66 1.818 1.399 2.781 1.988a8.57 8.57 0 0 0 2.71.74l4.608.945q8.49 1.685 17.061 2.977 11.753 1.778 23.604 2.844 5.616.521 11.24.856 14.427.869 28.881.677 2.982-.04 5.963-.134 17.703-.521 35.299-2.656c13.075-1.582 26.062-3.828 38.909-6.73a1.57 1.57 0 0 0 .686-2.603z" class="C"/><g fill="#ccc"><path d="M309.468 3.518l46.679 645.056-93.358 8.286V11.725c11.124-8.69 27.093-10.049 46.679-8.207zm230.415 0l-46.679 645.056 93.358 8.286V11.725c-11.124-8.69-27.093-10.049-46.679-8.207z"/><path d="M588.759 12.006C585.862 4.903 579.702 0 572.58 0H275.777c-9.903 0-17.952 9.502-17.952 21.193v641.133a22.91 22.91 0 0 0 6.186 15.994 17.01 17.01 0 0 0 7.773 4.662c1.301.36 2.644.54 3.993.537H572.58c1.349.004 2.693-.177 3.993-.537 7.987-2.147 13.959-10.586 13.959-20.656V21.193a24.34 24.34 0 0 0-1.774-9.186zm-4.181 650.319c0 7.808-5.384 14.163-11.998 14.163H275.777c-5.482 0-10.126-4.367-11.543-10.312a16.45 16.45 0 0 1-.455-3.851V21.193c0-7.808 5.384-14.153 11.998-14.153H572.58a10.18 10.18 0 0 1 3.566.642c4.876 1.789 8.432 7.166 8.432 13.511z"/><path d="M260.803 194.882h326.752v5.959H260.803zm0-123.01h326.752v5.959H260.803zm0 222.327h326.752v5.959H260.803z"/><path d="M360.878 2.674h5.959v375.944h-5.959zm120.643 0h5.959v375.944h-5.959zm143.276 643.602H233.489c-14.801.017-26.795 12.012-26.813 26.813a26.54 26.54 0 0 0 1.934 9.975c4.073 10.171 13.923 16.841 24.878 16.847h391.308c9.525-.003 18.333-5.059 23.14-13.282a25.81 25.81 0 0 0 1.747-3.566c1.281-3.169 1.938-6.556 1.934-9.975-.022-14.803-12.019-26.796-26.822-26.813z"/><path d="M262.789 364.714h324.766v19.863H262.789z"/><path d="M422.193 358.755h5.959a10.925 10.925 0 0 1 10.925 10.925h0a0 0 0 0 1 0 0h-27.809a0 0 0 0 1 0 0h0a10.925 10.925 0 0 1 10.925-10.925z"/></g><circle cx="430.901" cy="359.185" r="61.548" fill="#ffb8b8"/><path d="M362.243 299.976c.465-7.068 5.139-14.301 19.99-18.08 0 0 25.486-32.59 60.118-15.499 0 0 16.79-2.889 29.239 14.531 0 0 12.343-7.28 17.551 5.624 0 0 14.477 26.32 9.147 53.167s-8.058 30.197-8.058 30.197 6.793-55.532-32.335-51.681-70.631-9.91-79.492 20.218c-7.358 25.017-6.431 38.009-6.431 38.009s-24.605-24.956-16.239-44.608c4.279-10.051 5.792-20.978 6.509-31.878z" class="D"/><path d="M263.529 695.543h340.438c-2.275-25.969-3.762-125.235-3.762-131.769 0-28.816-23.579-60.263-23.579-60.263l-8.44-4.665-70.482-21.99-18.24-23.693c-3.872-5.044-9.886-7.98-16.245-7.932l-57.619.432c-5.07.039-9.943 1.97-13.664 5.415l-35.68 33.099-52.331 24.99-.089-.089-.547.407-7.766 5.593-4.995 3.61s-13.105 15.723-23.579 62.881c-1.576 7.093-2.682 98.911-3.419 113.973z" class="B"/><path d="M682.764 683.064l-2.478 2.228q-4.707 4.185-9.547 8.227-7.314 6.097-14.931 11.829H197.513q-13.999-10.509-26.964-22.285z" fill="#ccc"/><path d="M514.774 688.412H346.303l3.565-16.936h161.34l3.566 16.936z" class="D"/><path d="M667.191 615.319h-43.838a6.77 6.77 0 0 0-5.197 2.407 9.83 9.83 0 0 0-1.854-.178 10.4 10.4 0 0 0-9.013 15.6 10.4 10.4 0 0 0 9.013 5.196 10.28 10.28 0 0 0 4.528-1.052l.731 8.985 2.906 35.513a6.46 6.46 0 0 0 .553 1.275c1.196 2.197 3.497 3.564 5.999 3.566h28.506a6.86 6.86 0 0 0 6.008-3.566 7.03 7.03 0 0 0 .544-1.275l7.666-57.601c.639-2.079.254-4.338-1.038-6.087s-3.338-2.782-5.513-2.782zm-50.889 20.056a7.43 7.43 0 0 1 0-14.859c.134 0 .258.036.392.045-.293 1.197-.256 2.451.107 3.628l3.138 10.197a7.31 7.31 0 0 1-3.637.989zm-48.125-208.521H290.672a9.01 9.01 0 0 0-8.994 8.994v187.261c.005 4.965 4.029 8.989 8.994 8.994h277.505c4.965-.005 8.989-4.029 8.994-8.994V435.848a9.01 9.01 0 0 0-8.994-8.994z" class="B"/><path d="M460.676 576.9h-64.919c-1.912.003-3.461 1.555-3.459 3.467v102.553h71.845V580.368c0-.92-.365-1.802-1.015-2.452s-1.533-1.016-2.452-1.015zm-32.241 58.27c-4.226-.02-7.646-3.44-7.666-7.666v-11.829a7.67 7.67 0 0 1 7.666-7.657 7.67 7.67 0 0 1 7.666 7.657v11.829c-.02 4.226-3.44 7.646-7.666 7.666z" class="D"/><path d="M392.075 679.641v9.894a1.94 1.94 0 0 0 1.934 1.934h68.422c1.066-.005 1.929-.868 1.934-1.934v-9.894z" class="B"/><g class="D"><circle cx="562.275" cy="616.771" r="4.381"/><use xlink:href="#B"/><path d="M334.028 610.416c-.407 0-.797.161-1.084.449s-.449.678-.449 1.084v7.889c0 .847.686 1.533 1.533 1.533s1.533-.686 1.533-1.533v-7.889c0-.407-.162-.797-.449-1.084s-.678-.449-1.084-.449z"/><use xlink:href="#B" x="16.651"/><path d="M350.679 610.416c-.407 0-.797.161-1.084.449s-.449.678-.449 1.084v7.889c.002.845.688 1.529 1.533 1.529s1.531-.684 1.533-1.529v-7.889c0-.407-.162-.797-.449-1.084s-.678-.449-1.084-.449z"/></g><g fill="#ffb8b8"><circle cx="357.322" cy="660.779" r="23.176"/><circle cx="519.231" cy="665.236" r="23.176"/></g><g class="B"><path d="M758.448 385.496c-2.29-3.788-5.004-7.832-9.254-9.069-4.922-1.432-9.978 1.413-14.266 4.221a415.72 415.72 0 0 0-36.997 27.259l.013.147c9.202-.635 16.84 23.835 26.042 23.2 6.649-.459 15.091-26.084 20.967-29.229 2.23-1.194 4.403-2.788 6.93-2.899 3.139-.138 5.876 2.054 8.027 4.345 12.723 13.548 16.405 34.267 30.679 46.171a453 453 0 0 0-32.141-64.145zm24.489 32.907q10.068 18.184 21.357 35.646v.009l-.169 1.23q-1.364-2.086-2.701-4.19-10.135-15.898-19.263-32.402-4.332-7.849-8.45-15.822-3.182-6.177-6.231-12.426l-1.703-3.592-4.011-8.432c-1.587-3.173-3.521-6.489-6.436-8.62a8.78 8.78 0 0 0-4.573-1.765 12.77 12.77 0 0 0-6.623 1.899 213.14 213.14 0 0 0-41.922 28.908c-12.784 11.232-24.212 23.919-34.051 37.804-.303.428-1.016.018-.713-.419l3.664-5.018a219.5 219.5 0 0 1 56.023-52.253q5.442-3.53 11.098-6.73c1.899-1.079 3.806-2.139 5.749-3.138a14.02 14.02 0 0 1 6.097-1.89c7.399-.116 11.231 8.263 13.861 13.897q1.23 2.661 2.505 5.313 4.8 10.028 9.975 19.896 3.182 6.084 6.516 12.096zm-81.451-23.695l-1.289-1.437c-3.411-3.772-7.071-7.501-11.755-9.663a17.04 17.04 0 0 0-7.145-1.656 20.39 20.39 0 0 0-7.419 1.618c-1.117.446-2.209.953-3.285 1.492a105 105 0 0 0-3.638 1.944q-3.384 1.872-6.679 3.909-6.558 4.053-12.705 8.724-3.187 2.423-6.242 5.004-2.841 2.398-5.568 4.925c-.389.359-.969-.222-.58-.58l1.448-1.328q2.053-1.856 4.172-3.641 3.864-3.26 7.928-6.269 6.32-4.681 13.074-8.727 3.375-2.02 6.844-3.871c.698-.372 1.404-.736 2.119-1.081a33.78 33.78 0 0 1 5.037-2.05 17.92 17.92 0 0 1 7.608-.747 19.81 19.81 0 0 1 7.019 2.428c4.599 2.571 8.166 6.545 11.637 10.424.35.394-.227.977-.58.583zm-33.654 18.15c-1.169.058-2.324-.273-3.285-.941-2.545-1.928-2.478-6.559.204-14.159 1.476-4.162 4.607-7.527 8.652-9.299a14.81 14.81 0 0 1 11.928-.071q.494.214.973.46h0a35.13 35.13 0 0 1 6.1 4.328 40.3 40.3 0 0 0 5.08 3.752l.597.35-.566.399c-14.44 10.166-24.229 15.18-29.683 15.18zm55.525-60.497a20.51 20.51 0 0 1-20.114-16.531c-11.085 2.244-18.259 13.041-16.032 24.13s13.011 18.28 24.103 16.072 18.302-12.981 16.112-24.077a20.59 20.59 0 0 1-4.069.405z"/><circle cx="174.554" cy="354.748" r="30.595" opacity=".74"/><circle cx="205.148" cy="354.748" r="30.595" opacity=".74"/></g><circle cx="190.11" cy="330.364" r="30.595" opacity=".74" class="E"/><g class="B"><path d="M191.526 346.285l78.585-24.688.534 1.701-78.585 24.688z"/><circle cx="270.611" cy="322.162" r="3.566"/><path d="M780.78 482.601c5.224 3.681 10.242 7.434 15.982 10.269l-.33 1.319a56.27 56.27 0 0 1-2.077-1.034c-5.821-3.049-10.83-7.193-16.294-10.795a35.17 35.17 0 0 0-8.789-4.403 29 29 0 0 0-10.046-1.177c-14.146.695-26.269 9.137-39.417 13.389-6.436 2.086-13.282 3.2-19.994 1.89s-12.675-4.876-18.603-8.103c-5.847-3.191-12.221-6.4-19.049-6.4-5.562.009-11.41 2.237-14.387 7.158a.67.67 0 0 1-.904.22.67.67 0 0 1-.246-.897 14.03 14.03 0 0 1 2.434-3.04c3.886-3.681 9.6-5.134 14.85-4.707 6.792.553 12.987 3.762 18.862 6.988 6.231 3.423 12.613 7.104 19.815 7.853 7.113.749 14.155-1.114 20.751-3.619 12.774-4.858 25.378-12.952 39.586-12.052 6.703.428 12.444 3.334 17.854 7.14zM221.67 224.804v1.81a9.39 9.39 0 0 0-1.818-.178h-9.324v20.02c-.004 6.172-5.006 11.174-11.178 11.178h-13.781v3.084a9.34 9.34 0 0 0 .722 3.601h-1.908a10.98 10.98 0 0 1-.597-3.601v-3.084h-7.577v-1.783h7.577v-20.02c.004-6.172 5.006-11.174 11.178-11.178h13.781v-3.12h1.783v3.12h9.324c.609.001 1.217.051 1.818.151z"/><path d="M199.35 210.391h-24.887c-6.172.004-11.174 5.006-11.178 11.178v24.887c.004 6.172 5.006 11.174 11.178 11.178h24.887c6.172-.004 11.174-5.006 11.178-11.178v-24.923c-.022-6.158-5.019-11.14-11.178-11.142zm9.395 36.065a9.41 9.41 0 0 1-9.395 9.395h-24.887a9.41 9.41 0 0 1-9.395-9.395v-24.887a9.41 9.41 0 0 1 9.395-9.395h24.887a9.41 9.41 0 0 1 9.395 9.36z"/><path d="M183.786 255.851v1.783h1.783v-1.783zm0 0v1.783h1.783v-1.783zm37.884-31.047a11.19 11.19 0 0 0-1.818-.152h-24.887c-6.172.004-11.174 5.006-11.178 11.178v24.887a10.98 10.98 0 0 0 .597 3.601c1.543 4.529 5.796 7.575 10.581 7.577h24.887c6.172-.004 11.174-5.006 11.178-11.178V235.83a11.18 11.18 0 0 0-9.36-11.026zm7.577 35.914a9.41 9.41 0 0 1-9.395 9.395h-24.887a9.41 9.41 0 0 1-9.395-9.395v-24.887a9.41 9.41 0 0 1 9.395-9.395h24.887a9.4 9.4 0 0 1 9.395 9.395zm-45.46-4.867v1.783h1.783v-1.783zm-17.606 232.374H60.463c-1.532.001-2.775 1.24-2.781 2.772v6.266a375.14 375.14 0 0 0 12.649 39.408h95.85a2.77 2.77 0 0 0 2.772-2.772v-42.902c-.002-1.53-1.242-2.771-2.772-2.772z"/></g><path d="M156.109 550.586H75.973l2.933 6.668h77.203c4.35.062 4.305-6.73 0-6.668zm0 15.279H82.926q1.604 3.356 3.298 6.668h69.884c4.35.062 4.305-6.721 0-6.668zm0 15.287H90.726l3.672 6.668h61.71c4.35.062 4.305-6.73 0-6.668z" fill="#e4e4e4"/><use xlink:href="#C" class="B"/><use xlink:href="#C" opacity=".21"/><use xlink:href="#D" class="B"/><use xlink:href="#D" opacity=".21"/><g class="B"><use xlink:href="#E"/><use xlink:href="#E" x="65.962"/></g><path d="M735.4 176.527a380.7 380.7 0 0 1 25.021 39.265h-15.581c-5.678-.008-10.278-4.609-10.287-10.287v-24.887c-.001-1.407.287-2.8.847-4.091z" class="E"/><path d="M704.157 228.851l-8.718-13.059-6.373-9.547c-.759-1.138-2.105-1.738-3.459-1.542s-2.474 1.153-2.879 2.46l-2.683 8.629-5.402 17.337c-.437 1.414.049 2.951 1.219 3.858s2.78.992 4.04.216l1.917-1.186a2.66 2.66 0 0 1 4.047 2.023l1.756 19.165a3.56 3.56 0 0 0 3.53 3.227c.107 0 .214-.009.33-.018l2.692-.241c.938-.085 1.803-.54 2.405-1.264s.891-1.658.804-2.596l-1.809-19.789a2.66 2.66 0 0 1 3.762-2.656l.392.178c1.443.664 3.152.288 4.183-.921s1.132-2.956.247-4.276z" fill="#ccc"/><defs ><path id="B" d="M325.703 610.416c-.407 0-.797.161-1.084.449s-.449.678-.449 1.084v7.889c.002.845.688 1.529 1.533 1.529s1.531-.684 1.533-1.529v-7.889c0-.407-.161-.797-.449-1.084s-.678-.449-1.084-.449z"/><path id="C" d="M704.176 170.256h-.508c1.581.001 3.14.37 4.554 1.077h-2.312a9.41 9.41 0 0 0-9.395 9.395v24.888a9.41 9.41 0 0 0 9.395 9.395h1.474c-1.184.465-2.445.704-3.716.706h.508a10.3 10.3 0 0 0 10.286-10.286v-24.888a10.3 10.3 0 0 0-10.286-10.286z"/><path id="D" d="M638.214 170.256h-.508c1.581.001 3.14.37 4.554 1.077h-2.312a9.41 9.41 0 0 0-9.395 9.395v24.888a9.41 9.41 0 0 0 9.395 9.395h1.474c-1.184.465-2.445.704-3.716.706h.508A10.3 10.3 0 0 0 648.5 205.43v-24.888a10.3 10.3 0 0 0-10.286-10.286z"/><path id="E" d="M640.048 215.088a9.41 9.41 0 0 1-9.395-9.395v-24.888a9.41 9.41 0 0 1 9.395-9.395h2.312c-1.414-.707-2.973-1.076-4.554-1.077h-24.888a10.3 10.3 0 0 0-10.286 10.286v24.888a10.3 10.3 0 0 0 10.286 10.286h24.888c1.272-.002 2.532-.241 3.716-.706z"/></defs></svg>